<svg 
 xmlns="http://www.w3.org/2000/svg"
 xmlns:xlink="http://www.w3.org/1999/xlink"
 width="18px" height="18px">
<path fill-rule="evenodd"  fill="rgb(173, 190, 197)"
 d="M17.000,18.000 L1.000,18.000 C0.448,18.000 -0.000,17.552 -0.000,17.000 L-0.000,1.000 C-0.000,0.448 0.448,-0.000 1.000,-0.000 L17.000,-0.000 C17.552,-0.000 18.000,0.448 18.000,1.000 L18.000,17.000 C18.000,17.552 17.552,18.000 17.000,18.000 ZM16.000,2.000 L2.000,2.000 L2.000,16.000 L16.000,16.000 L16.000,2.000 ZM6.486,8.241 L7.732,9.486 C7.732,9.486 7.732,9.486 7.732,9.486 L7.944,9.698 L11.358,6.285 C11.733,5.910 12.340,5.910 12.715,6.285 C13.090,6.660 13.090,7.267 12.715,7.642 L8.927,11.430 C8.884,11.540 8.820,11.643 8.732,11.732 C8.545,11.918 8.297,11.995 8.053,11.979 C7.778,12.005 7.495,11.926 7.285,11.715 C7.166,11.596 7.098,11.451 7.055,11.301 L6.241,10.486 C6.241,10.486 6.241,10.486 6.241,10.486 L5.241,9.486 C4.897,9.142 4.897,8.585 5.241,8.241 C5.585,7.897 6.142,7.897 6.486,8.241 Z"/>
</svg>