<svg 
 xmlns="http://www.w3.org/2000/svg"
 xmlns:xlink="http://www.w3.org/1999/xlink"
 width="6px" height="10px">
<path fill-rule="evenodd"  fill="rgb(173, 190, 197)"
 d="M5.715,5.715 C5.651,5.779 5.573,5.817 5.498,5.859 L1.642,9.715 C1.267,10.090 0.660,10.090 0.285,9.715 C-0.090,9.340 -0.090,8.733 0.285,8.358 L3.642,5.000 L0.285,1.642 C-0.090,1.267 -0.090,0.660 0.285,0.285 C0.660,-0.090 1.267,-0.090 1.642,0.285 L5.498,4.141 C5.574,4.183 5.651,4.221 5.715,4.285 C5.912,4.482 5.999,4.742 5.989,5.000 C5.999,5.258 5.912,5.518 5.715,5.715 Z"/>
</svg>