<svg 
 xmlns="http://www.w3.org/2000/svg"
 xmlns:xlink="http://www.w3.org/1999/xlink"
 width="6px" height="10px">
<path fill-rule="evenodd"  fill="rgb(173, 190, 197)"
 d="M2.358,5.000 L5.715,8.358 C6.090,8.733 6.090,9.340 5.715,9.715 C5.340,10.090 4.733,10.090 4.358,9.715 L0.502,5.859 C0.427,5.817 0.349,5.779 0.285,5.715 C0.088,5.518 0.001,5.258 0.011,5.000 C0.001,4.742 0.088,4.482 0.285,4.285 C0.349,4.221 0.426,4.183 0.502,4.141 L4.358,0.285 C4.733,-0.090 5.340,-0.090 5.715,0.285 C6.090,0.660 6.090,1.267 5.715,1.642 L2.358,5.000 Z"/>
</svg>