<svg 
 xmlns="http://www.w3.org/2000/svg"
 xmlns:xlink="http://www.w3.org/1999/xlink"
 width="18px" height="14px">
<path fill-rule="evenodd"  fill="rgb(52, 71, 80)"
 d="M17.000,8.000 L6.000,8.000 C5.448,8.000 5.000,7.552 5.000,7.000 C5.000,6.448 5.448,6.000 6.000,6.000 L17.000,6.000 C17.552,6.000 18.000,6.448 18.000,7.000 C18.000,7.552 17.552,8.000 17.000,8.000 ZM17.000,2.000 L6.000,2.000 C5.448,2.000 5.000,1.552 5.000,1.000 C5.000,0.448 5.448,0.000 6.000,0.000 L17.000,0.000 C17.552,0.000 18.000,0.448 18.000,1.000 C18.000,1.552 17.552,2.000 17.000,2.000 ZM1.000,14.000 C0.448,14.000 -0.000,13.552 -0.000,13.000 C-0.000,12.448 0.448,12.000 1.000,12.000 C1.552,12.000 2.000,12.448 2.000,13.000 C2.000,13.552 1.552,14.000 1.000,14.000 ZM1.000,8.000 C0.448,8.000 -0.000,7.552 -0.000,7.000 C-0.000,6.448 0.448,6.000 1.000,6.000 C1.552,6.000 2.000,6.448 2.000,7.000 C2.000,7.552 1.552,8.000 1.000,8.000 ZM1.000,2.000 C0.448,2.000 -0.000,1.552 -0.000,1.000 C-0.000,0.448 0.448,0.000 1.000,0.000 C1.552,0.000 2.000,0.448 2.000,1.000 C2.000,1.552 1.552,2.000 1.000,2.000 ZM6.000,12.000 L17.000,12.000 C17.552,12.000 18.000,12.448 18.000,13.000 C18.000,13.552 17.552,14.000 17.000,14.000 L6.000,14.000 C5.448,14.000 5.000,13.552 5.000,13.000 C5.000,12.448 5.448,12.000 6.000,12.000 Z"/>
</svg>