<svg 
 xmlns="http://www.w3.org/2000/svg"
 xmlns:xlink="http://www.w3.org/1999/xlink"
 width="18px" height="18px">
<path fill-rule="evenodd"  fill="rgb(173, 190, 197)"
 d="M17.000,18.000 L1.000,18.000 C0.448,18.000 -0.000,17.552 -0.000,17.000 L-0.000,1.000 C-0.000,0.448 0.448,-0.000 1.000,-0.000 L17.000,-0.000 C17.552,-0.000 18.000,0.448 18.000,1.000 L18.000,17.000 C18.000,17.552 17.552,18.000 17.000,18.000 ZM16.000,2.000 L2.000,2.000 L2.000,16.000 L16.000,16.000 L16.000,2.000 ZM7.000,4.000 L11.000,4.000 C11.552,4.000 12.000,4.448 12.000,5.000 L12.000,9.000 C12.000,9.552 11.552,10.000 11.000,10.000 L10.000,10.000 C10.000,10.552 9.552,11.000 9.000,11.000 C8.448,11.000 8.000,10.552 8.000,10.000 L8.000,9.000 C8.000,8.448 8.448,8.000 9.000,8.000 L10.000,8.000 L10.000,6.000 L8.000,6.000 C8.000,6.552 7.552,7.000 7.000,7.000 C6.448,7.000 6.000,6.552 6.000,6.000 L6.000,5.000 C6.000,4.448 6.448,4.000 7.000,4.000 ZM9.000,12.000 C9.552,12.000 10.000,12.448 10.000,13.000 C10.000,13.552 9.552,14.000 9.000,14.000 C8.448,14.000 8.000,13.552 8.000,13.000 C8.000,12.448 8.448,12.000 9.000,12.000 Z"/>
</svg>