<svg 
 xmlns="http://www.w3.org/2000/svg"
 xmlns:xlink="http://www.w3.org/1999/xlink"
 width="15px" height="3px">
<path fill-rule="evenodd"  fill="rgb(173, 190, 197)"
 d="M13.500,3.000 C12.672,3.000 12.000,2.328 12.000,1.500 C12.000,0.672 12.672,0.000 13.500,0.000 C14.328,0.000 15.000,0.672 15.000,1.500 C15.000,2.328 14.328,3.000 13.500,3.000 ZM7.500,3.000 C6.672,3.000 6.000,2.328 6.000,1.500 C6.000,0.672 6.672,0.000 7.500,0.000 C8.328,0.000 9.000,0.672 9.000,1.500 C9.000,2.328 8.328,3.000 7.500,3.000 ZM1.500,3.000 C0.672,3.000 0.000,2.328 0.000,1.500 C0.000,0.672 0.672,0.000 1.500,0.000 C2.328,0.000 3.000,0.672 3.000,1.500 C3.000,2.328 2.328,3.000 1.500,3.000 Z"/>
</svg>