<svg 
 xmlns="http://www.w3.org/2000/svg"
 xmlns:xlink="http://www.w3.org/1999/xlink"
 width="18px" height="18px">
<path fill-rule="evenodd"  fill="rgb(173, 190, 197)"
 d="M17.000,18.000 L6.000,18.000 C5.448,18.000 5.000,17.552 5.000,17.000 C5.000,16.448 5.448,16.000 6.000,16.000 L16.000,16.000 L16.000,2.000 L6.000,2.000 C5.448,2.000 5.000,1.552 5.000,1.000 C5.000,0.448 5.448,-0.000 6.000,-0.000 L17.000,-0.000 C17.552,-0.000 18.000,0.448 18.000,1.000 L18.000,17.000 C18.000,17.552 17.552,18.000 17.000,18.000 ZM4.723,6.753 L3.491,7.990 L9.164,7.990 C9.626,7.990 10.000,8.437 10.000,8.988 L10.000,8.996 C10.000,9.547 9.626,9.994 9.164,9.994 L3.482,9.994 L4.694,11.211 C5.096,11.615 5.096,12.270 4.694,12.674 C4.292,13.078 3.640,13.078 3.237,12.674 L0.416,9.840 C0.172,9.666 -0.000,9.361 -0.000,8.996 L-0.000,8.988 C-0.000,8.648 0.152,8.362 0.370,8.182 L3.257,5.281 C3.662,4.874 4.318,4.874 4.723,5.281 C5.128,5.688 5.128,6.347 4.723,6.753 Z"/>
</svg>