<svg 
 xmlns="http://www.w3.org/2000/svg"
 xmlns:xlink="http://www.w3.org/1999/xlink"
 width="18px" height="14px">
<path fill-rule="evenodd"  fill="rgb(173, 190, 197)"
 d="M17.000,14.000 L1.000,14.000 C0.448,14.000 -0.000,13.552 -0.000,13.000 C-0.000,13.000 -0.000,13.000 -0.000,13.000 C-0.000,13.000 -0.000,13.000 -0.000,13.000 L-0.000,1.178 C-0.008,1.131 0.009,1.084 0.007,1.037 C0.007,1.024 -0.000,1.013 -0.000,1.000 C-0.000,0.978 0.011,0.959 0.013,0.937 C0.019,0.827 0.035,0.724 0.076,0.621 C0.085,0.600 0.101,0.584 0.111,0.563 C0.156,0.470 0.190,0.373 0.269,0.294 C0.475,0.088 0.748,-0.007 1.018,0.000 L17.000,0.000 C17.007,0.000 17.013,0.004 17.020,0.004 C17.139,0.009 17.257,0.028 17.368,0.074 C17.406,0.090 17.437,0.115 17.472,0.135 C17.539,0.171 17.603,0.211 17.660,0.261 C17.693,0.291 17.722,0.324 17.751,0.358 C17.801,0.416 17.843,0.479 17.878,0.547 C17.896,0.581 17.915,0.613 17.929,0.650 C17.971,0.759 18.000,0.875 18.000,1.000 L18.000,1.017 C18.000,1.017 18.000,1.018 18.000,1.018 L18.000,13.000 C18.000,13.552 17.552,14.000 17.000,14.000 ZM3.670,2.000 L8.984,6.640 L14.299,2.000 L3.670,2.000 ZM9.737,8.692 C9.530,8.899 9.256,8.994 8.984,8.986 C8.713,8.994 8.439,8.899 8.232,8.692 L2.000,3.252 L2.000,12.000 L16.000,12.000 L16.000,3.225 L9.737,8.692 Z"/>
</svg>