<svg 
 xmlns="http://www.w3.org/2000/svg"
 xmlns:xlink="http://www.w3.org/1999/xlink"
 width="18px" height="18px">
<path fill-rule="evenodd"  fill="rgb(173, 190, 197)"
 d="M17.000,18.000 L1.000,18.000 C0.448,18.000 -0.000,17.552 -0.000,17.000 L-0.000,1.000 C-0.000,0.448 0.448,0.000 1.000,0.000 L9.000,0.000 C9.552,0.000 10.000,0.448 10.000,1.000 C10.000,1.552 9.552,2.000 9.000,2.000 L2.000,2.000 L2.000,16.000 L16.000,16.000 L16.000,9.000 C16.000,8.448 16.448,8.000 17.000,8.000 C17.552,8.000 18.000,8.448 18.000,9.000 L18.000,17.000 C18.000,17.552 17.552,18.000 17.000,18.000 ZM16.491,2.903 L15.066,1.478 L16.260,0.283 C16.654,-0.111 17.292,-0.111 17.686,0.283 C18.079,0.676 18.079,1.315 17.686,1.708 L16.491,2.903 ZM6.708,12.686 C6.315,13.079 5.676,13.079 5.283,12.686 C4.889,12.292 4.889,11.654 5.283,11.260 L6.283,10.260 C6.283,10.260 6.283,10.260 6.283,10.260 L13.478,3.066 L14.903,4.491 L6.708,12.686 Z"/>
</svg>