<svg 
 xmlns="http://www.w3.org/2000/svg"
 xmlns:xlink="http://www.w3.org/1999/xlink"
 width="18px" height="18px">
<path fill-rule="evenodd"  fill="rgb(255, 255, 255)"
 d="M18.000,12.962 C18.000,12.962 18.000,12.962 18.000,12.963 L18.000,12.975 C18.000,13.524 17.555,13.969 17.006,13.969 L1.074,13.969 C0.923,13.975 0.772,13.954 0.630,13.895 C0.377,13.795 0.176,13.596 0.074,13.343 C-0.084,12.968 -0.011,12.520 0.296,12.215 L3.000,9.527 L3.000,6.000 C3.000,2.686 5.686,0.000 9.000,0.000 C12.314,0.000 15.000,2.686 15.000,6.000 L15.000,9.506 L17.706,12.195 C17.918,12.406 18.012,12.686 18.000,12.962 ZM13.307,10.717 C13.119,10.535 13.000,10.282 13.000,10.000 L13.000,6.000 C13.000,3.791 11.209,2.000 9.000,2.000 C6.791,2.000 5.000,3.791 5.000,6.000 L5.000,9.982 C5.012,10.261 4.918,10.542 4.704,10.754 L3.482,11.969 L14.558,11.969 L13.325,10.744 C13.317,10.736 13.315,10.725 13.307,10.717 ZM9.000,18.000 C7.895,18.000 7.000,17.105 7.000,16.000 L11.000,16.000 C11.000,17.105 10.105,18.000 9.000,18.000 Z"/>
</svg>