<svg 
 xmlns="http://www.w3.org/2000/svg"
 xmlns:xlink="http://www.w3.org/1999/xlink"
 width="18px" height="18px">
<path fill-rule="evenodd"  fill="rgb(173, 190, 197)"
 d="M9.000,18.000 C4.029,18.000 -0.000,13.971 -0.000,9.000 C-0.000,4.029 4.029,-0.000 9.000,-0.000 C13.971,-0.000 18.000,4.029 18.000,9.000 C18.000,13.971 13.971,18.000 9.000,18.000 ZM9.000,2.000 C5.134,2.000 2.000,5.134 2.000,9.000 C2.000,12.866 5.134,16.000 9.000,16.000 C12.866,16.000 16.000,12.866 16.000,9.000 C16.000,5.134 12.866,2.000 9.000,2.000 ZM11.000,13.000 L10.000,13.000 C10.000,13.552 9.552,14.000 9.000,14.000 C8.448,14.000 8.000,13.552 8.000,13.000 L7.000,13.000 C6.448,13.000 6.000,12.552 6.000,12.000 C6.000,11.448 6.448,11.000 7.000,11.000 L10.000,11.000 L10.000,10.000 L7.000,10.000 C6.448,10.000 6.000,9.552 6.000,9.000 L6.000,6.000 C6.000,5.448 6.448,5.000 7.000,5.000 L8.000,5.000 C8.000,4.448 8.448,4.000 9.000,4.000 C9.552,4.000 10.000,4.448 10.000,5.000 L11.000,5.000 C11.552,5.000 12.000,5.448 12.000,6.000 C12.000,6.552 11.552,7.000 11.000,7.000 L8.000,7.000 L8.000,8.000 L11.000,8.000 C11.552,8.000 12.000,8.448 12.000,9.000 L12.000,12.000 C12.000,12.552 11.552,13.000 11.000,13.000 Z"/>
</svg>