<svg 
 xmlns="http://www.w3.org/2000/svg"
 xmlns:xlink="http://www.w3.org/1999/xlink"
 width="18px" height="18px">
<path fill-rule="evenodd"  fill="rgb(173, 190, 197)"
 d="M17.000,18.000 L1.000,18.000 C0.448,18.000 -0.000,17.552 -0.000,17.000 L-0.000,1.000 C-0.000,0.448 0.448,0.000 1.000,0.000 L17.000,0.000 C17.552,0.000 18.000,0.448 18.000,1.000 L18.000,17.000 C18.000,17.552 17.552,18.000 17.000,18.000 ZM16.000,2.000 L2.000,2.000 L2.000,16.000 L16.000,16.000 L16.000,2.000 ZM7.257,5.281 C7.662,4.875 8.318,4.875 8.723,5.281 C9.128,5.688 9.128,6.347 8.723,6.753 L7.492,7.990 L13.164,7.990 C13.626,7.990 14.000,8.437 14.000,8.988 L14.000,8.996 C14.000,9.547 13.626,9.994 13.164,9.994 L7.482,9.994 L8.694,11.211 C9.096,11.615 9.096,12.270 8.694,12.674 C8.292,13.078 7.640,13.078 7.237,12.674 L4.416,9.840 C4.172,9.666 4.000,9.361 4.000,8.996 L4.000,8.988 C4.000,8.648 4.152,8.362 4.370,8.182 L7.257,5.281 Z"/>
</svg>