<svg 
 xmlns="http://www.w3.org/2000/svg"
 xmlns:xlink="http://www.w3.org/1999/xlink"
 width="18px" height="16px">
<path fill-rule="evenodd"  fill="rgb(173, 190, 197)"
 d="M14.000,16.000 L4.000,16.000 C1.791,16.000 -0.000,14.209 -0.000,12.000 C-0.000,9.791 1.791,8.000 4.000,8.000 L5.000,8.000 L5.000,4.000 C5.000,1.791 6.791,0.000 9.000,0.000 C11.209,0.000 13.000,1.791 13.000,4.000 L13.000,8.000 L14.000,8.000 C16.209,8.000 18.000,9.791 18.000,12.000 C18.000,14.209 16.209,16.000 14.000,16.000 ZM11.000,4.000 C11.000,2.895 10.105,2.000 9.000,2.000 C7.895,2.000 7.000,2.895 7.000,4.000 L7.000,8.000 C7.000,9.105 7.895,10.000 9.000,10.000 C10.105,10.000 11.000,9.105 11.000,8.000 L11.000,4.000 ZM14.000,10.000 L12.445,10.000 C11.752,11.191 10.477,12.000 9.000,12.000 C7.523,12.000 6.248,11.191 5.555,10.000 L4.000,10.000 C2.895,10.000 2.000,10.895 2.000,12.000 C2.000,13.105 2.895,14.000 4.000,14.000 L14.000,14.000 C15.105,14.000 16.000,13.105 16.000,12.000 C16.000,10.895 15.105,10.000 14.000,10.000 Z"/>
</svg>