<svg 
 xmlns="http://www.w3.org/2000/svg"
 xmlns:xlink="http://www.w3.org/1999/xlink"
 width="16px" height="16px">
<path fill-rule="evenodd"  fill="rgb(173, 190, 197)"
 d="M15.678,15.678 C15.270,16.086 14.608,16.086 14.200,15.678 L11.140,12.618 C9.978,13.476 8.555,14.000 7.000,14.000 C3.134,14.000 -0.000,10.866 -0.000,7.000 C-0.000,3.134 3.134,0.000 7.000,0.000 C10.866,0.000 14.000,3.134 14.000,7.000 C14.000,8.555 13.476,9.978 12.618,11.140 L15.678,14.200 C16.086,14.608 16.086,15.270 15.678,15.678 ZM7.000,2.000 C4.239,2.000 2.000,4.239 2.000,7.000 C2.000,9.761 4.239,12.000 7.000,12.000 C9.761,12.000 12.000,9.761 12.000,7.000 C12.000,4.239 9.761,2.000 7.000,2.000 Z"/>
</svg>