<svg 
 xmlns="http://www.w3.org/2000/svg"
 xmlns:xlink="http://www.w3.org/1999/xlink"
 width="18px" height="18px">
<path fill-rule="evenodd"  fill="rgb(255, 255, 255)"
 d="M17.000,10.000 L15.899,10.000 C15.729,11.182 15.273,12.261 14.589,13.175 L15.364,13.950 C15.754,14.340 15.754,14.974 15.364,15.364 C14.973,15.755 14.340,15.755 13.950,15.364 L13.175,14.589 C12.261,15.273 11.182,15.729 10.000,15.899 L10.000,17.000 C10.000,17.552 9.552,18.000 9.000,18.000 C8.448,18.000 8.000,17.552 8.000,17.000 L8.000,15.899 C6.818,15.729 5.739,15.273 4.825,14.589 L4.050,15.364 C3.660,15.755 3.027,15.755 2.636,15.364 C2.246,14.974 2.246,14.340 2.636,13.950 L3.411,13.175 C2.727,12.261 2.271,11.182 2.101,10.000 L1.000,10.000 C0.448,10.000 -0.000,9.552 -0.000,9.000 C-0.000,8.448 0.448,8.000 1.000,8.000 L2.101,8.000 C2.271,6.818 2.727,5.739 3.411,4.825 L2.636,4.050 C2.246,3.660 2.246,3.027 2.636,2.636 C3.027,2.245 3.660,2.245 4.050,2.636 L4.825,3.411 C5.739,2.727 6.818,2.271 8.000,2.101 L8.000,1.000 C8.000,0.448 8.448,0.000 9.000,0.000 C9.552,0.000 10.000,0.448 10.000,1.000 L10.000,2.101 C11.182,2.271 12.261,2.727 13.175,3.411 L13.950,2.636 C14.340,2.245 14.973,2.245 15.364,2.636 C15.754,3.027 15.754,3.660 15.364,4.050 L14.589,4.825 C15.273,5.739 15.729,6.818 15.899,8.000 L17.000,8.000 C17.552,8.000 18.000,8.448 18.000,9.000 C18.000,9.552 17.552,10.000 17.000,10.000 ZM9.000,4.000 C6.239,4.000 4.000,6.239 4.000,9.000 C4.000,11.761 6.239,14.000 9.000,14.000 C11.761,14.000 14.000,11.761 14.000,9.000 C14.000,6.239 11.761,4.000 9.000,4.000 ZM9.000,12.000 C7.343,12.000 6.000,10.657 6.000,9.000 C6.000,7.343 7.343,6.000 9.000,6.000 C10.657,6.000 12.000,7.343 12.000,9.000 C12.000,10.657 10.657,12.000 9.000,12.000 ZM9.000,8.000 C8.448,8.000 8.000,8.448 8.000,9.000 C8.000,9.552 8.448,10.000 9.000,10.000 C9.552,10.000 10.000,9.552 10.000,9.000 C10.000,8.448 9.552,8.000 9.000,8.000 Z"/>
</svg>