<svg 
 xmlns="http://www.w3.org/2000/svg"
 xmlns:xlink="http://www.w3.org/1999/xlink"
 width="18px" height="17px">
<path fill-rule="evenodd"  fill="rgb(173, 190, 197)"
 d="M17.164,13.026 L11.482,13.026 L12.694,14.242 C13.096,14.646 13.096,15.302 12.694,15.706 C12.292,16.110 11.640,16.110 11.237,15.706 L8.416,12.871 C8.172,12.697 8.000,12.392 8.000,12.027 L8.000,12.020 C8.000,11.679 8.152,11.393 8.370,11.213 L11.257,8.312 C11.662,7.906 12.318,7.906 12.723,8.312 C13.128,8.719 13.128,9.378 12.723,9.784 L11.491,11.022 L17.164,11.022 C17.626,11.022 18.000,11.468 18.000,12.020 L18.000,12.027 C18.000,12.579 17.626,13.026 17.164,13.026 ZM9.864,4.478 C9.836,4.528 9.807,4.575 9.771,4.619 C9.738,4.667 9.718,4.721 9.675,4.764 L6.763,7.690 C6.360,8.094 5.708,8.094 5.306,7.690 C4.904,7.286 4.904,6.631 5.306,6.227 L6.527,5.000 L1.000,5.000 C0.448,5.000 -0.000,4.552 -0.000,4.000 C-0.000,3.448 0.448,3.000 1.000,3.000 L6.503,3.000 L5.277,1.769 C4.872,1.362 4.872,0.703 5.277,0.297 C5.682,-0.110 6.338,-0.110 6.743,0.297 L9.674,3.241 C9.706,3.274 9.720,3.317 9.747,3.352 C9.899,3.528 10.000,3.750 10.000,4.000 C10.000,4.142 9.961,4.272 9.907,4.394 C9.896,4.423 9.878,4.449 9.864,4.478 Z"/>
</svg>